<?xml version="1.0" encoding="utf-8"?>
<!-- Generator: Adobe Illustrator 15.0.2, SVG Export Plug-In . SVG Version: 6.00 Build 0)  -->
<!DOCTYPE svg PUBLIC "-//W3C//DTD SVG 1.1//EN" "http://www.w3.org/Graphics/SVG/1.1/DTD/svg11.dtd">
<svg version="1.1" id="Layer_1" xmlns="http://www.w3.org/2000/svg" xmlns:xlink="http://www.w3.org/1999/xlink" x="0px" y="0px"
	 width="20px" height="20px" viewBox="0 0 20 20" enable-background="new 0 0 20 20" xml:space="preserve">
<g>
	<g>
		<path fill-rule="evenodd" clip-rule="evenodd" d="M12.673,8.462c-0.231,0.574-0.46,1.149-0.689,1.724
			c0.494,0.432,1.005,0.821,1.565,1.086c0.23-0.574,0.46-1.148,0.688-1.723C13.676,9.284,13.166,8.894,12.673,8.462z"/>
		<path fill-rule="evenodd" clip-rule="evenodd" d="M9.642,6.039C9.413,6.613,9.183,7.188,8.954,7.762
			c0.56,0.266,1.071,0.656,1.565,1.087c0.23-0.576,0.459-1.149,0.689-1.725C10.713,6.693,10.201,6.303,9.642,6.039z"/>
		<path fill-rule="evenodd" clip-rule="evenodd" d="M7.972,3.544C7.284,5.269,6.596,6.993,5.907,8.717
			c-0.153,0.384-0.305,0.766-0.458,1.15l-2.524,6.321c-0.126,0.316,0.03,0.679,0.346,0.806c0.315,0.125,0.678-0.03,0.804-0.347
			l2.764-6.92c3.21,0.305,4.617,5.124,8.381,4.041c0.843-2.107,1.684-4.216,2.524-6.322C13.476,8.672,12.238,2.317,7.972,3.544z
			 M15.413,11.609c-0.692,0.069-1.304-0.071-1.864-0.338c-0.229,0.576-0.459,1.149-0.688,1.726
			c-0.562-0.267-1.071-0.655-1.566-1.088c0.231-0.573,0.46-1.147,0.688-1.724c-0.493-0.432-0.971-0.905-1.465-1.336
			c-0.229,0.574-0.458,1.148-0.688,1.724c-0.495-0.431-1.005-0.821-1.565-1.086c0.229-0.575,0.459-1.15,0.688-1.725
			C8.393,7.498,7.783,7.358,7.089,7.426c0.229-0.576,0.459-1.15,0.688-1.724c0.693-0.068,1.304,0.071,1.864,0.336
			c0.229-0.575,0.459-1.15,0.688-1.724c0.561,0.264,1.071,0.654,1.566,1.085c-0.229,0.575-0.459,1.15-0.688,1.724
			c0.493,0.432,0.97,0.906,1.465,1.337c0.229-0.574,0.458-1.15,0.688-1.724c0.494,0.432,1.005,0.821,1.566,1.086
			c-0.23,0.574-0.46,1.149-0.689,1.724c0.561,0.266,1.172,0.406,1.864,0.337C15.873,10.46,15.644,11.035,15.413,11.609z"/>
	</g>
</g>
</svg>
