<?xml version="1.0" encoding="utf-8"?>
<!-- Generator: Adobe Illustrator 15.0.2, SVG Export Plug-In . SVG Version: 6.00 Build 0)  -->
<!DOCTYPE svg PUBLIC "-//W3C//DTD SVG 1.1//EN" "http://www.w3.org/Graphics/SVG/1.1/DTD/svg11.dtd">
<svg version="1.1" id="Layer_1" xmlns="http://www.w3.org/2000/svg" xmlns:xlink="http://www.w3.org/1999/xlink" x="0px" y="0px"
	 width="16px" height="16px" viewBox="0 0 16 16" enable-background="new 0 0 16 16" xml:space="preserve">
<g>
	<path d="M14.981,10.102c-0.267-0.601-0.176-1.224-0.08-1.826c0.143-0.93,0.312-2.068-1.168-2.736
		c0.101-0.354,0.09-0.763-0.207-0.907l-1.766-0.848c-0.386-0.188-1.39-0.146-1.507,0.097s-0.443,0.753,0.381,0.943
		c0.828,0.19,1.59,1.153,1.59,1.153c0.278,0.269,0.595,0.43,0.846,0.436c0.985,0.345,0.932,0.75,0.787,1.703
		c-0.107,0.682-0.236,1.531,0.161,2.42c0.535,1.192,0.566,1.896,0.106,2.35c-0.567,0.557-1.329,0.381-1.812,0.059
		c-0.652-0.431-0.661-1.23-0.601-2.492c0.029-0.717,0.065-1.461-0.146-2.093C11.099,6.961,9.657,6.942,9.59,6.942l0,0L8.95,6.941
		V2.189c0-0.291-0.238-0.527-0.528-0.527H2.085c-0.29,0-0.528,0.237-0.528,0.527v11.093H1.028c0,0-0.528,0-0.528,0.527
		s0,0.527,0,0.527h0.528h0.529h0.528h6.337H8.95h0.529h0.529V13.81c0,0,0-0.527-0.529-0.527H8.95V8h0.638
		c0.075,0.003,0.754,0.036,0.976,0.696c0.152,0.446,0.123,1.054,0.094,1.703c-0.061,1.234-0.129,2.634,1.069,3.426
		c0.483,0.321,1.003,0.479,1.511,0.479c0.602,0,1.181-0.224,1.626-0.663C16.048,12.482,15.273,10.754,14.981,10.102z M12.576,5.723
		c-0.145,0-0.264-0.118-0.264-0.264c0-0.146,0.119-0.265,0.264-0.265c0.146,0,0.264,0.119,0.264,0.265
		C12.84,5.605,12.723,5.723,12.576,5.723z M2.613,3.245c0-0.289,0.237-0.528,0.528-0.528h4.225c0.292,0,0.527,0.239,0.527,0.528
		v3.169c0,0.293-0.234,0.528-0.527,0.528H3.141c-0.291,0-0.528-0.235-0.528-0.528V3.245z"/>
</g>
</svg>
