<?xml version="1.0" encoding="utf-8"?>
<!-- Generator: Adobe Illustrator 15.0.2, SVG Export Plug-In . SVG Version: 6.00 Build 0)  -->
<!DOCTYPE svg PUBLIC "-//W3C//DTD SVG 1.1//EN" "http://www.w3.org/Graphics/SVG/1.1/DTD/svg11.dtd">
<svg version="1.1" id="Layer_1" xmlns="http://www.w3.org/2000/svg" xmlns:xlink="http://www.w3.org/1999/xlink" x="0px" y="0px"
	 width="50px" height="50px" viewBox="0 0 50 50" enable-background="new 0 0 50 50" xml:space="preserve">
<g>
	<g>
		<path fill-rule="evenodd" clip-rule="evenodd" fill="#FFFFFF" d="M25,0C11.193,0,0,11.193,0,25c0,13.808,11.193,25,25,25
			c13.808,0,25-11.192,25-25C50,11.193,38.808,0,25,0z M11.664,22.984v-5.078c0-5.208,2.389-6.314,5.079-6.314
			c2.554,0,5.014,0.806,5.154,4.231l-0.004,2.318h-2.979l0.005-1.505c-0.087-1.737-0.571-2.136-2.176-2.215
			c-2.341,0-2.015,3.36-2.015,4.812v5.207c-0.024,2.448-0.028,4.217,2.015,4.217c1.174,0,2.16-0.335,2.16-2.157l0.002-3.496h-2.063
			V20.25H21.8v11.133h-2.865l0.005-1.169c-0.611,0.895-2.152,1.357-2.934,1.429C11.111,31.643,11.709,28.459,11.664,22.984z
			 M38.346,38.408H11.62V34.24h26.726V38.408z M38.38,31.362h-2.896l0.006-12.869l-2.578,12.869h-2.345l-2.442-12.805l0.001,12.805
			h-2.893V12.048h4.031l2.538,12.825l2.54-12.825h4.037V31.362z"/>
	</g>
</g>
</svg>
