<?xml version="1.0" encoding="utf-8"?>
<!-- Generator: Adobe Illustrator 15.0.2, SVG Export Plug-In . SVG Version: 6.00 Build 0)  -->
<!DOCTYPE svg PUBLIC "-//W3C//DTD SVG 1.1//EN" "http://www.w3.org/Graphics/SVG/1.1/DTD/svg11.dtd">
<svg version="1.1" id="Layer_1" xmlns="http://www.w3.org/2000/svg" xmlns:xlink="http://www.w3.org/1999/xlink" x="0px" y="0px"
	 width="20px" height="50px" viewBox="0 0 20 50" enable-background="new 0 0 20 50" xml:space="preserve">
<g>
	<path d="M13.819,42.385c-0.365,0-0.662,0.134-0.89,0.402c-0.229,0.268-0.437,0.604-0.625,1.01s-0.383,0.845-0.582,1.318
		c-0.2,0.474-0.445,0.913-0.737,1.318c-0.291,0.405-0.653,0.742-1.087,1.01c-0.434,0.269-0.987,0.402-1.661,0.402
		c-0.582,0-1.087-0.097-1.515-0.291c-0.428-0.193-0.785-0.471-1.07-0.83c-0.285-0.359-0.496-0.785-0.633-1.275
		c-0.137-0.491-0.206-1.039-0.206-1.644c0-0.696,0.06-1.353,0.18-1.969c0.12-0.616,0.294-1.124,0.522-1.524l1.969,0.736
		c-0.16,0.251-0.305,0.628-0.437,1.13c-0.131,0.503-0.197,1.045-0.197,1.627c0,0.548,0.108,0.967,0.325,1.258S7.685,45.5,8.05,45.5
		c0.342,0,0.628-0.134,0.856-0.402c0.229-0.268,0.439-0.604,0.634-1.01c0.194-0.405,0.394-0.845,0.599-1.318
		s0.454-0.913,0.745-1.318c0.292-0.404,0.651-0.741,1.079-1.01c0.429-0.269,0.962-0.402,1.601-0.402c0.64,0,1.19,0.105,1.652,0.316
		c0.462,0.212,0.848,0.508,1.155,0.891c0.309,0.383,0.537,0.845,0.686,1.387c0.147,0.542,0.222,1.139,0.222,1.789
		c0,0.855-0.079,1.609-0.239,2.26s-0.319,1.13-0.479,1.438l-2.003-0.754c0.068-0.125,0.143-0.288,0.223-0.487
		c0.08-0.2,0.154-0.426,0.223-0.677s0.126-0.517,0.171-0.796c0.046-0.279,0.068-0.567,0.068-0.864c0-0.696-0.116-1.23-0.351-1.602
		C14.655,42.57,14.299,42.385,13.819,42.385z"/>
	<path d="M7.143,29.972v3.492h9.896v2.346H7.143v3.51H5.054v-9.348H7.143z"/>
	<path d="M14.385,24.186v3.681l2.653,0.907v2.346l-12.07-4.314v-1.729l12.07-4.314v2.465L14.385,24.186z M12.501,27.267v-2.567
		l-2.67,0.89l-1.883,0.36v0.085l1.9,0.359L12.501,27.267z"/>
	<path d="M5.174,19.734c-0.045-0.262-0.088-0.545-0.128-0.847s-0.071-0.605-0.094-0.908c-0.023-0.302-0.04-0.596-0.051-0.881
		S4.883,16.55,4.883,16.31c0-0.559,0.051-1.11,0.154-1.652c0.103-0.542,0.28-1.027,0.531-1.455c0.251-0.428,0.597-0.771,1.036-1.027
		c0.44-0.257,0.991-0.385,1.652-0.385c0.982,0,1.78,0.229,2.397,0.685c0.616,0.457,1.044,1.067,1.284,1.832l0.53-0.839l4.571-2.739
		v2.705l-4.69,2.722l-0.223,1.233h4.913v2.345H5.174z M6.971,16.139c0,0.24,0.006,0.477,0.017,0.71
		c0.012,0.234,0.034,0.414,0.069,0.54h3.475v-0.993c0-0.65-0.148-1.17-0.445-1.558C9.791,14.45,9.3,14.255,8.615,14.255
		c-0.514,0-0.916,0.16-1.207,0.479C7.117,15.055,6.971,15.522,6.971,16.139z"/>
	<path d="M7.143,1.758V5.25h9.896v2.345H7.143v3.51H5.054V1.758H7.143z"/>
</g>
</svg>
