<?xml version="1.0" encoding="utf-8"?>
<!-- Generator: Adobe Illustrator 15.0.2, SVG Export Plug-In . SVG Version: 6.00 Build 0)  -->
<!DOCTYPE svg PUBLIC "-//W3C//DTD SVG 1.1//EN" "http://www.w3.org/Graphics/SVG/1.1/DTD/svg11.dtd">
<svg version="1.1" id="Layer_1" xmlns="http://www.w3.org/2000/svg" xmlns:xlink="http://www.w3.org/1999/xlink" x="0px" y="0px"
	 width="20px" height="20px" viewBox="0 0 20 20" enable-background="new 0 0 20 20" xml:space="preserve">
<g>
	<path d="M2,10C2,8.89,2.209,7.852,2.629,6.885c0.419-0.967,0.992-1.813,1.717-2.539c0.725-0.726,1.571-1.298,2.539-1.717
		S8.891,2,10,2s2.148,0.21,3.115,0.629s1.812,0.992,2.539,1.717c0.725,0.725,1.297,1.572,1.717,2.539C17.791,7.852,18,8.89,18,10
		c0,1.11-0.209,2.147-0.629,3.114c-0.42,0.969-0.992,1.814-1.717,2.539c-0.727,0.727-1.572,1.299-2.539,1.719
		C12.148,17.789,11.109,18,10,18s-2.147-0.211-3.115-0.629c-0.967-0.42-1.813-0.992-2.539-1.719
		c-0.726-0.725-1.298-1.57-1.717-2.539C2.209,12.146,2,11.109,2,10z M4.411,10c0,0.768,0.146,1.493,0.438,2.176
		c0.291,0.682,0.689,1.277,1.194,1.781s1.099,0.902,1.782,1.195c0.683,0.291,1.408,0.436,2.176,0.436s1.493-0.145,2.176-0.436
		c0.684-0.293,1.281-0.691,1.793-1.195s0.914-1.1,1.205-1.781c0.291-0.684,0.438-1.409,0.438-2.176c0-0.768-0.146-1.493-0.438-2.176
		c-0.291-0.683-0.693-1.28-1.205-1.792c-0.512-0.512-1.109-0.914-1.793-1.206C11.493,4.535,10.768,4.389,10,4.389
		S8.507,4.535,7.824,4.826C7.141,5.118,6.547,5.52,6.042,6.032C5.538,6.543,5.139,7.141,4.848,7.824
		C4.556,8.506,4.411,9.231,4.411,10z M8.805,10v-3.2c0-0.327,0.118-0.608,0.352-0.842C9.392,5.722,9.673,5.605,10,5.605
		s0.608,0.117,0.843,0.352c0.234,0.234,0.353,0.516,0.353,0.842v2.709l1.92,1.899c0.242,0.242,0.363,0.525,0.363,0.854
		c0,0.326-0.121,0.611-0.363,0.852c-0.113,0.115-0.246,0.201-0.395,0.258c-0.149,0.057-0.303,0.084-0.459,0.084
		s-0.31-0.027-0.459-0.084s-0.281-0.143-0.395-0.258l-2.262-2.26c-0.014-0.014-0.021-0.028-0.021-0.043
		c0-0.014-0.007-0.028-0.021-0.043c-0.1-0.1-0.171-0.199-0.213-0.299C8.833,10.341,8.805,10.185,8.805,10z"/>
</g>
</svg>
